<?xml version="1.0" encoding="UTF-8" standalone="no"?>
<!-- Created with Inkscape (http://www.inkscape.org/) -->

<svg
   width="210mm"
   height="297mm"
   viewBox="0 0 210 297"
   version="1.1"
   id="svg1"
   sodipodi:docname="donut.svg"
   inkscape:version="1.3 (0e150ed6c4, 2023-07-21)"
   xml:space="preserve"
   inkscape:export-filename="donut_piece_big_dough.png"
   inkscape:export-xdpi="96"
   inkscape:export-ydpi="96"
   xmlns:inkscape="http://www.inkscape.org/namespaces/inkscape"
   xmlns:sodipodi="http://sodipodi.sourceforge.net/DTD/sodipodi-0.dtd"
   xmlns="http://www.w3.org/2000/svg"
   xmlns:svg="http://www.w3.org/2000/svg"><sodipodi:namedview
     id="namedview1"
     pagecolor="#8be1f7"
     bordercolor="#000000"
     borderopacity="0.25"
     inkscape:showpageshadow="2"
     inkscape:pageopacity="0.0"
     inkscape:pagecheckerboard="0"
     inkscape:deskcolor="#d1d1d1"
     inkscape:document-units="mm"
     inkscape:zoom="0.7071068"
     inkscape:cx="237.58787"
     inkscape:cy="757.31134"
     inkscape:window-width="1904"
     inkscape:window-height="1009"
     inkscape:window-x="0"
     inkscape:window-y="0"
     inkscape:window-maximized="0"
     inkscape:current-layer="layer4"
     inkscape:export-bgcolor="#ffffff04" /><defs
     id="defs1"><filter
       inkscape:collect="always"
       style="color-interpolation-filters:sRGB"
       id="filter2"
       x="-0.035291503"
       y="-0.035291503"
       width="1.070583"
       height="1.070583"><feGaussianBlur
         inkscape:collect="always"
         stdDeviation="0.67102157"
         id="feGaussianBlur2" /></filter><filter
       inkscape:collect="always"
       style="color-interpolation-filters:sRGB"
       id="filter3"
       x="-0.023508447"
       y="-0.023742496"
       width="1.0470169"
       height="1.047485"><feGaussianBlur
         inkscape:collect="always"
         stdDeviation="0.5230811"
         id="feGaussianBlur3" /></filter><filter
       inkscape:collect="always"
       style="color-interpolation-filters:sRGB"
       id="filter5"
       x="-0.029315938"
       y="-0.029317052"
       width="1.0586319"
       height="1.0586341"><feGaussianBlur
         inkscape:collect="always"
         stdDeviation="1.0041201"
         id="feGaussianBlur5" /></filter><filter
       inkscape:collect="always"
       style="color-interpolation-filters:sRGB"
       id="filter6"
       x="-0.021428058"
       y="-0.021428876"
       width="1.0428561"
       height="1.0428577"><feGaussianBlur
         inkscape:collect="always"
         stdDeviation="1.0041201"
         id="feGaussianBlur6" /></filter><filter
       inkscape:collect="always"
       style="color-interpolation-filters:sRGB"
       id="filter6-8"
       x="-0.021428058"
       y="-0.021428876"
       width="1.0428561"
       height="1.0428577"><feGaussianBlur
         inkscape:collect="always"
         stdDeviation="1.0041201"
         id="feGaussianBlur6-2" /></filter><filter
       inkscape:collect="always"
       style="color-interpolation-filters:sRGB"
       id="filter5-7"
       x="-0.029315938"
       y="-0.029317052"
       width="1.0586319"
       height="1.0586341"><feGaussianBlur
         inkscape:collect="always"
         stdDeviation="1.0041201"
         id="feGaussianBlur5-8" /></filter><filter
       inkscape:collect="always"
       style="color-interpolation-filters:sRGB"
       id="filter3-5"
       x="-0.023508447"
       y="-0.023742496"
       width="1.0470169"
       height="1.047485"><feGaussianBlur
         inkscape:collect="always"
         stdDeviation="0.5230811"
         id="feGaussianBlur3-2" /></filter><filter
       inkscape:collect="always"
       style="color-interpolation-filters:sRGB"
       id="filter2-3"
       x="-0.035291503"
       y="-0.035291503"
       width="1.070583"
       height="1.070583"><feGaussianBlur
         inkscape:collect="always"
         stdDeviation="0.67102157"
         id="feGaussianBlur2-4" /></filter><clipPath
       clipPathUnits="userSpaceOnUse"
       id="clipPath19"><path
         sodipodi:type="star"
         style="display:inline;fill:#8be1f7;fill-opacity:1;stroke:#002065;stroke-width:0"
         id="path19"
         inkscape:flatsided="false"
         sodipodi:sides="3"
         sodipodi:cx="93.91851"
         sodipodi:cy="215.15196"
         sodipodi:r1="23.576141"
         sodipodi:r2="11.788071"
         sodipodi:arg1="-1.586668"
         sodipodi:arg2="-0.53947046"
         inkscape:rounded="0"
         inkscape:randomized="0"
         d="m 93.544333,191.57879 10.488117,17.51786 10.48811,17.51785 -20.414961,0.32405 -20.414966,0.32405 9.92685,-17.84191 z"
         inkscape:transform-center-x="-0.093806514"
         inkscape:transform-center-y="-6.3663059"
         transform="matrix(0.5014091,0,0,1.1108021,57.111006,-14.707416)" /></clipPath><filter
       inkscape:collect="always"
       style="color-interpolation-filters:sRGB"
       id="filter6-8-2"
       x="-0.021428088"
       y="-0.021428769"
       width="1.0428562"
       height="1.0428575"><feGaussianBlur
         inkscape:collect="always"
         stdDeviation="1.0041201"
         id="feGaussianBlur6-2-5" /></filter><filter
       inkscape:collect="always"
       style="color-interpolation-filters:sRGB"
       id="filter3-5-4"
       x="-0.023508447"
       y="-0.023742496"
       width="1.0470169"
       height="1.047485"><feGaussianBlur
         inkscape:collect="always"
         stdDeviation="0.5230811"
         id="feGaussianBlur3-2-5" /></filter><filter
       inkscape:collect="always"
       style="color-interpolation-filters:sRGB"
       id="filter2-3-3"
       x="-0.035291503"
       y="-0.035291503"
       width="1.070583"
       height="1.070583"><feGaussianBlur
         inkscape:collect="always"
         stdDeviation="0.67102157"
         id="feGaussianBlur2-4-1" /></filter><filter
       inkscape:collect="always"
       style="color-interpolation-filters:sRGB"
       id="filter6-0"
       x="-0.021428058"
       y="-0.021428876"
       width="1.0428561"
       height="1.0428577"><feGaussianBlur
         inkscape:collect="always"
         stdDeviation="1.0041201"
         id="feGaussianBlur6-1" /></filter><filter
       inkscape:collect="always"
       style="color-interpolation-filters:sRGB"
       id="filter5-2"
       x="-0.029315938"
       y="-0.029317052"
       width="1.0586319"
       height="1.0586341"><feGaussianBlur
         inkscape:collect="always"
         stdDeviation="1.0041201"
         id="feGaussianBlur5-87" /></filter><filter
       inkscape:collect="always"
       style="color-interpolation-filters:sRGB"
       id="filter3-4"
       x="-0.023508447"
       y="-0.023742496"
       width="1.0470169"
       height="1.047485"><feGaussianBlur
         inkscape:collect="always"
         stdDeviation="0.5230811"
         id="feGaussianBlur3-3" /></filter><filter
       inkscape:collect="always"
       style="color-interpolation-filters:sRGB"
       id="filter2-0"
       x="-0.035291503"
       y="-0.035291503"
       width="1.070583"
       height="1.070583"><feGaussianBlur
         inkscape:collect="always"
         stdDeviation="0.67102157"
         id="feGaussianBlur2-8" /></filter><clipPath
       clipPathUnits="userSpaceOnUse"
       id="clipPath3"><path
         sodipodi:type="star"
         style="fill:#8be1f7;fill-opacity:1;stroke:#002065;stroke-width:0"
         id="path3"
         inkscape:flatsided="false"
         sodipodi:sides="3"
         sodipodi:cx="425"
         sodipodi:cy="901"
         sodipodi:r1="109.77249"
         sodipodi:r2="54.886246"
         sodipodi:arg1="0.52479577"
         sodipodi:arg2="1.5719933"
         inkscape:rounded="0"
         inkscape:randomized="0"
         d="m 520,956 -95.0657,-0.11379 -95.0657,-0.1138 L 377.5,873.5 l 47.6314,-82.27241 47.4343,82.3862 z"
         transform="matrix(0.26455355,0,0,0.24837754,-8.1214683,2.3967321)"
         inkscape:transform-center-x="0.017382024"
         inkscape:transform-center-y="-6.8021185" /></clipPath><clipPath
       clipPathUnits="userSpaceOnUse"
       id="clipPath3-8"><path
         sodipodi:type="star"
         style="fill:#8be1f7;fill-opacity:1;stroke:#002065;stroke-width:0"
         id="path3-1"
         inkscape:flatsided="false"
         sodipodi:sides="3"
         sodipodi:cx="425"
         sodipodi:cy="901"
         sodipodi:r1="109.77249"
         sodipodi:r2="54.886246"
         sodipodi:arg1="0.52479577"
         sodipodi:arg2="1.5719933"
         inkscape:rounded="0"
         inkscape:randomized="0"
         d="m 520,956 -95.0657,-0.11379 -95.0657,-0.1138 L 377.5,873.5 l 47.6314,-82.27241 47.4343,82.3862 z"
         transform="matrix(0.26455355,0,0,0.24837754,-8.1214683,2.3967321)"
         inkscape:transform-center-x="0.017382024"
         inkscape:transform-center-y="-6.8021185" /></clipPath><filter
       inkscape:collect="always"
       style="color-interpolation-filters:sRGB"
       id="filter6-0-0"
       x="-0.021428088"
       y="-0.021428886"
       width="1.0428562"
       height="1.0428578"><feGaussianBlur
         inkscape:collect="always"
         stdDeviation="1.0041201"
         id="feGaussianBlur6-1-0" /></filter><filter
       inkscape:collect="always"
       style="color-interpolation-filters:sRGB"
       id="filter3-4-0"
       x="-0.023508447"
       y="-0.023742496"
       width="1.0470169"
       height="1.047485"><feGaussianBlur
         inkscape:collect="always"
         stdDeviation="0.5230811"
         id="feGaussianBlur3-3-0" /></filter><filter
       inkscape:collect="always"
       style="color-interpolation-filters:sRGB"
       id="filter2-0-2"
       x="-0.035291503"
       y="-0.035291503"
       width="1.070583"
       height="1.070583"><feGaussianBlur
         inkscape:collect="always"
         stdDeviation="0.67102157"
         id="feGaussianBlur2-8-3" /></filter></defs><g
     inkscape:groupmode="layer"
     id="layer2"
     inkscape:label="Donut"
     transform="translate(0.70359039,-19.09787)"
     style="display:inline"><g
       id="dough"><ellipse
         style="display:inline;fill:#d2895a;fill-opacity:1;stroke:#8a1212;stroke-width:0;stroke-dasharray:none;stroke-opacity:1"
         id="donut_dough_shadow"
         cx="104.29641"
         cy="168.60905"
         rx="68.411034"
         ry="68.06501" /><ellipse
         style="display:inline;fill:#fba36b;fill-opacity:1;stroke:#8a1212;stroke-width:0;stroke-dasharray:none;stroke-opacity:1"
         id="donut_dough"
         cx="104.29641"
         cy="168.60905"
         rx="66.970146"
         ry="66.631409"
         inkscape:export-filename="donut-bg.png"
         inkscape:export-xdpi="96"
         inkscape:export-ydpi="96" /></g><g
       id="icing"><circle
         style="display:inline;fill:#d85c9d;fill-opacity:1;stroke:#8a1212;stroke-width:0;stroke-dasharray:none;stroke-opacity:1"
         id="donut_icing_shadow_outside"
         cx="104.20676"
         cy="165.92204"
         r="67.400368" /><circle
         style="display:inline;fill:#fc6cb7;fill-opacity:1;stroke:#8a1212;stroke-width:0;stroke-dasharray:none;stroke-opacity:1"
         id="donut_icing_outside"
         cx="104.20676"
         cy="165.92204"
         r="66.487083" /><path
         id="donut_icing_shine"
         style="display:inline;fill:#ffffff;fill-opacity:0.0841346;stroke:#8a1212;stroke-width:0;stroke-dasharray:none;stroke-opacity:1;filter:url(#filter6)"
         d="m 102.9728,109.70518 c -10.924569,0.244 -21.762699,3.71795 -30.783669,10.0048 -8.68901,5.96223 -15.66432,14.58992 -19.76139,24.28749 -3.36688,7.90761 -4.87276,16.74743 -4.3431,25.3199 0.73137,12.80339 6.00805,25.20212 14.70732,34.62701 8.9501,9.80542 21.31391,16.15775 34.468902,17.76797 8.848557,1.12035 18.016527,0.066 26.332587,-3.01682 12.46434,-4.54311 23.15903,-13.62505 29.63248,-25.233 4.33075,-7.67265 6.80596,-16.48901 7.16159,-25.191 0.42268,-9.11034 -1.49283,-18.41398 -5.45735,-26.64002 -3.99005,-8.3444 -10.10742,-15.78325 -17.63523,-21.18828 -8.62241,-6.28603 -19.18521,-10.1021 -29.8363,-10.67097 -1.49389,-0.0813 -2.99015,-0.10424 -4.48584,-0.0671 z" /><path
         id="donut_icing_inside"
         style="display:inline;fill:#fc6cb7;fill-opacity:1;stroke:#8a1212;stroke-width:0;stroke-dasharray:none;stroke-opacity:1;filter:url(#filter5)"
         d="m 103.30649,124.83001 c -7.985155,0.17835 -15.907139,2.71758 -22.500879,7.31287 -6.35111,4.358 -11.44961,10.66428 -14.4443,17.75258 -2.46098,5.77995 -3.56168,12.24129 -3.17453,18.50722 0.53458,9.35844 4.39149,18.42113 10.7501,25.31011 6.54195,7.16713 15.5791,11.81026 25.194542,12.98723 6.467727,0.81891 13.168927,0.0483 19.247427,-2.2051 9.11063,-3.32072 16.92775,-9.95904 21.65943,-18.44368 3.1655,-5.60822 4.97471,-12.05241 5.23466,-18.41301 0.30895,-6.65907 -1.09116,-13.45943 -3.98897,-19.47213 -2.91647,-6.09922 -7.38787,-11.53654 -12.89021,-15.48727 -6.30243,-4.59468 -14.02316,-7.38398 -21.80841,-7.79979 -1.09194,-0.0595 -2.18561,-0.0762 -3.27886,-0.049 z" /><path
         id="donut_icing_shadow_inside"
         style="display:inline;fill:#d85c9d;fill-opacity:1;stroke:#8a1212;stroke-width:0;filter:url(#filter3)"
         d="m 130.63805,165.92098 c 0,3.74013 1.74277,9.38425 -0.87562,12.0872 -7.09622,7.32543 -14.6917,14.3296 -25.54117,14.3296 -6.880057,0 -15.578929,-1.93496 -18.802509,-5.89703 -4.51009,-5.54332 -7.6143,-12.81022 -7.6143,-20.51977 0,-6.8046 0.75531,-14.58175 5.14761,-19.25559 4.4723,-4.75897 13.484222,-7.16121 21.269199,-7.16121 7.11887,1e-5 14.5047,-0.81884 17.98285,4.7877 3.68175,5.9347 8.43394,14.15838 8.43394,21.6291 z"
         sodipodi:nodetypes="sssssssss" /></g><g
       id="hole"><path
         id="donut_hole_dough"
         style="display:inline;fill:#fba36b;stroke:#8a1212;stroke-width:0"
         d="m 129.27304,165.91989 c 0,3.54476 1.65174,8.89407 -0.82988,11.45583 -6.72557,6.9428 -13.92431,13.58111 -24.20706,13.58111 -6.52068,0 -14.765179,-1.83389 -17.820383,-5.58901 -4.274502,-5.25375 -7.216566,-12.14108 -7.216566,-19.44793 0,-6.44918 0.71585,-13.82009 4.878729,-18.24981 4.238687,-4.51038 12.779882,-6.78714 20.15822,-6.78714 6.74701,1e-5 13.74706,-0.77608 17.04354,4.53762 3.48944,5.62471 7.9934,13.41883 7.9934,20.49933 z"
         sodipodi:nodetypes="sssssssss" /><circle
         style="display:inline;fill:#de8f60;fill-opacity:1;stroke:#8a1212;stroke-width:0;stroke-dasharray:none;stroke-opacity:1;filter:url(#filter2)"
         id="donut_hole_shadow"
         cx="107.8599"
         cy="78.612076"
         r="22.816431"
         transform="matrix(0.9471247,0,0,0.9471247,2.0499883,91.4666)"
         inkscape:export-filename="donut-fg.png"
         inkscape:export-xdpi="96"
         inkscape:export-ydpi="96" /><circle
         style="display:inline;fill:#8be1f7;fill-opacity:1;stroke:#8a1212;stroke-width:0;stroke-dasharray:none;stroke-opacity:1"
         id="donut_hole"
         cx="104.20676"
         cy="165.92204"
         r="19.361622"
         inkscape:export-filename="donut-fg.png"
         inkscape:export-xdpi="96"
         inkscape:export-ydpi="96" /></g></g><g
     inkscape:groupmode="layer"
     id="layer4"
     inkscape:label="Holes"
     transform="translate(0.70359039,-68.77906)"
     style="display:inline"><path
       sodipodi:type="star"
       style="display:none;fill:#8be1f7;fill-opacity:1;stroke:#002065;stroke-width:0"
       id="small"
       inkscape:flatsided="false"
       sodipodi:sides="3"
       sodipodi:cx="93.91851"
       sodipodi:cy="215.15196"
       sodipodi:r1="23.576141"
       sodipodi:r2="11.788071"
       sodipodi:arg1="-1.586668"
       sodipodi:arg2="-0.53947046"
       inkscape:rounded="0"
       inkscape:randomized="0"
       d="m 93.544333,191.57879 10.488117,17.51786 10.48811,17.51785 -20.414961,0.32405 -20.414966,0.32405 9.92685,-17.84191 z"
       inkscape:transform-center-x="-0.093806514"
       inkscape:transform-center-y="-6.3663059"
       transform="matrix(0.50140911,0,0,1.1108021,57.111005,34.395801)"
       inkscape:export-filename="donut_hole_small.png"
       inkscape:export-xdpi="18.842627"
       inkscape:export-ydpi="18.842627" /><path
       sodipodi:type="star"
       style="display:none;fill:#8be1f7;fill-opacity:1;stroke:#002065;stroke-width:0"
       id="big"
       inkscape:flatsided="false"
       sodipodi:sides="3"
       sodipodi:cx="425"
       sodipodi:cy="901"
       sodipodi:r1="109.77249"
       sodipodi:r2="54.886246"
       sodipodi:arg1="0.52479577"
       sodipodi:arg2="1.5719933"
       inkscape:rounded="0"
       inkscape:randomized="0"
       d="m 520,956 -95.0657,-0.11379 -95.0657,-0.1138 L 377.5,873.5 l 47.6314,-82.27241 47.4343,82.3862 z"
       transform="matrix(0.26455355,0,0,0.24837754,-8.1214684,52.077922)"
       inkscape:transform-center-x="0.017382024"
       inkscape:transform-center-y="-6.8021185" /></g><g
     id="small_piece"
     style="display:inline"><g
       id="small_piece_gray"
       inkscape:label="small_piece_gray"
       transform="translate(-76.554743,47.528324)"
       clip-path="url(#clipPath19)"
       style="display:inline"><title
         id="title27">small_piece_gray</title><g
         id="gray"
         style="display:inline"><g
           id="dough-9-7"><ellipse
             style="display:inline;fill:#bababa;fill-opacity:1;stroke:#8a1212;stroke-width:0;stroke-dasharray:none;stroke-opacity:1"
             id="donut_dough_shadow-5-8"
             cx="104.29641"
             cy="168.60905"
             rx="68.411034"
             ry="68.06501" /><ellipse
             style="display:inline;fill:#ffffff;fill-opacity:1;stroke:#8a1212;stroke-width:0;stroke-dasharray:none;stroke-opacity:1"
             id="donut_dough-8-4"
             cx="104.29641"
             cy="168.60905"
             rx="66.970146"
             ry="66.631409"
             inkscape:export-filename="donut-bg.png"
             inkscape:export-xdpi="96"
             inkscape:export-ydpi="96" /></g><g
           id="icing-7-8"
           style="display:inline"><circle
             style="display:inline;fill:#d4d4d4;fill-opacity:1;stroke:#8a1212;stroke-width:0;stroke-dasharray:none;stroke-opacity:1"
             id="donut_icing_shadow_outside-7-4"
             cx="104.20676"
             cy="165.92204"
             r="67.400368" /><circle
             style="display:inline;fill:#ffffff;fill-opacity:1;stroke:#8a1212;stroke-width:0;stroke-dasharray:none;stroke-opacity:1"
             id="donut_icing_outside-3-9"
             cx="104.20676"
             cy="165.92204"
             r="66.487083" /><path
             id="donut_icing_shadow_inside-3-1"
             style="display:inline;fill:#d85c9d;fill-opacity:1;stroke:#8a1212;stroke-width:0;filter:url(#filter3-5-4)"
             d="m 130.63805,165.92098 c 0,3.74013 1.74277,9.38425 -0.87562,12.0872 -7.09622,7.32543 -14.6917,14.3296 -25.54117,14.3296 -6.880057,0 -15.578929,-1.93496 -18.802509,-5.89703 -4.51009,-5.54332 -7.6143,-12.81022 -7.6143,-20.51977 0,-6.8046 0.75531,-14.58175 5.14761,-19.25559 4.4723,-4.75897 13.484222,-7.16121 21.269199,-7.16121 7.11887,1e-5 14.5047,-0.81884 17.98285,4.7877 3.68175,5.9347 8.43394,14.15838 8.43394,21.6291 z"
             sodipodi:nodetypes="sssssssss" /><path
             id="donut_icing_shine-3-8"
             style="display:inline;fill:#ffffff;fill-opacity:1;stroke:#8a1212;stroke-width:0;stroke-dasharray:none;stroke-opacity:1;filter:url(#filter6-8-2)"
             d="m 105.21656,109.69412 c -0.74776,-0.0113 -1.49595,-0.008 -2.24379,0.0109 -10.92456,0.244 -21.762691,3.71823 -30.783652,10.00508 -8.689002,5.96222 -15.664519,14.58984 -19.761585,24.2874 -3.366876,7.9076 -4.872547,16.74744 -4.342887,25.3199 0.731369,12.80338 6.007851,25.20195 14.707113,34.62683 8.950091,9.80541 21.314235,16.15821 34.469213,17.76843 8.848548,1.12034 18.016188,0.0659 26.332248,-3.01687 12.46432,-4.54311 23.15937,-13.62515 29.63281,-25.23309 4.33075,-7.67264 6.80569,-16.48925 7.16132,-25.19123 0.42268,-9.11033 -1.49251,-18.41368 -5.45703,-26.63971 -3.99005,-8.3444 -10.10781,-15.78335 -17.63562,-21.18838 -8.6224,-6.28602 -19.18482,-10.10231 -29.8359,-10.67118 -0.74694,-0.0406 -1.49448,-0.0668 -2.24224,-0.078 z m -0.27027,15.12776 c 0.54657,0.008 1.09321,0.0276 1.63918,0.0574 7.78524,0.41581 15.50606,3.20485 21.80849,7.79952 5.50233,3.95073 9.9737,9.38822 12.89017,15.48743 2.8978,6.01269 4.29785,12.81313 3.9889,19.4722 -0.25995,6.36059 -2.06933,12.80461 -5.23482,18.41283 -4.73168,8.48463 -12.54853,15.12311 -21.65915,18.44383 -6.07849,2.2534 -12.77968,3.02394 -19.247401,2.20503 -9.615432,-1.17696 -18.652901,-5.82019 -25.194844,-12.98732 -6.358604,-6.88897 -10.215669,-15.95165 -10.750249,-25.31008 -0.387149,-6.26592 0.714023,-12.72745 3.175,-18.5074 2.994687,-7.08829 8.092976,-13.39441 14.44408,-17.7524 6.593733,-4.59529 14.515805,-7.13438 22.500954,-7.31273 0.54662,-0.0136 1.09313,-0.0165 1.63969,-0.008 z" /></g><g
           id="hole-4-6"
           style="display:inline"><path
             id="donut_hole_dough-7-8"
             style="display:inline;fill:#fba36b;stroke:#8a1212;stroke-width:0"
             d="m 129.27304,165.91989 c 0,3.54476 1.65174,8.89407 -0.82988,11.45583 -6.72557,6.9428 -13.92431,13.58111 -24.20706,13.58111 -6.52068,0 -14.765179,-1.83389 -17.820383,-5.58901 -4.274502,-5.25375 -7.216566,-12.14108 -7.216566,-19.44793 0,-6.44918 0.71585,-13.82009 4.878729,-18.24981 4.238687,-4.51038 12.779882,-6.78714 20.15822,-6.78714 6.74701,1e-5 13.74706,-0.77608 17.04354,4.53762 3.48944,5.62471 7.9934,13.41883 7.9934,20.49933 z"
             sodipodi:nodetypes="sssssssss" /><circle
             style="display:inline;fill:#de8f60;fill-opacity:1;stroke:#8a1212;stroke-width:0;stroke-dasharray:none;stroke-opacity:1;filter:url(#filter2-3-3)"
             id="donut_hole_shadow-0-6"
             cx="107.8599"
             cy="78.612076"
             r="22.816431"
             transform="matrix(0.9471247,0,0,0.9471247,2.0499883,91.4666)"
             inkscape:export-filename="donut-fg.png"
             inkscape:export-xdpi="96"
             inkscape:export-ydpi="96" /><circle
             style="display:inline;fill:#8be1f7;fill-opacity:1;stroke:#8a1212;stroke-width:0;stroke-dasharray:none;stroke-opacity:1"
             id="donut_hole-0-5"
             cx="104.20676"
             cy="165.92204"
             r="19.361622"
             inkscape:export-filename="donut-fg.png"
             inkscape:export-xdpi="96"
             inkscape:export-ydpi="96" /></g></g></g><g
       id="small_piece_color"
       inkscape:label="small_piece_color"
       transform="translate(-76.554743,47.528325)"
       clip-path="url(#clipPath19)"
       style="display:inline"><title
         id="title26">small_piece_color</title><g
         id="color"
         style="display:inline"><g
           id="dough-9"><ellipse
             style="display:inline;fill:#d2895a;fill-opacity:1;stroke:#8a1212;stroke-width:0;stroke-dasharray:none;stroke-opacity:1"
             id="donut_dough_shadow-5"
             cx="104.29641"
             cy="168.60905"
             rx="68.411034"
             ry="68.06501" /><ellipse
             style="display:inline;fill:#fba36b;fill-opacity:1;stroke:#8a1212;stroke-width:0;stroke-dasharray:none;stroke-opacity:1"
             id="donut_dough-8"
             cx="104.29641"
             cy="168.60905"
             rx="66.970146"
             ry="66.631409"
             inkscape:export-filename="donut-bg.png"
             inkscape:export-xdpi="96"
             inkscape:export-ydpi="96" /></g><g
           id="icing-7"
           style="display:inline"><circle
             style="display:inline;fill:#d85c9d;fill-opacity:1;stroke:#8a1212;stroke-width:0;stroke-dasharray:none;stroke-opacity:1"
             id="donut_icing_shadow_outside-7"
             cx="104.20676"
             cy="165.92204"
             r="67.400368" /><circle
             style="display:inline;fill:#fc6cb7;fill-opacity:1;stroke:#8a1212;stroke-width:0;stroke-dasharray:none;stroke-opacity:1"
             id="donut_icing_outside-3"
             cx="104.20676"
             cy="165.92204"
             r="66.487083" /><path
             id="donut_icing_shine-3"
             style="display:inline;fill:#ffffff;fill-opacity:0.0841346;stroke:#8a1212;stroke-width:0;stroke-dasharray:none;stroke-opacity:1;filter:url(#filter6-8)"
             d="m 102.9728,109.70518 c -10.924569,0.244 -21.762699,3.71795 -30.783669,10.0048 -8.68901,5.96223 -15.66432,14.58992 -19.76139,24.28749 -3.36688,7.90761 -4.87276,16.74743 -4.3431,25.3199 0.73137,12.80339 6.00805,25.20212 14.70732,34.62701 8.9501,9.80542 21.31391,16.15775 34.468902,17.76797 8.848557,1.12035 18.016527,0.066 26.332587,-3.01682 12.46434,-4.54311 23.15903,-13.62505 29.63248,-25.233 4.33075,-7.67265 6.80596,-16.48901 7.16159,-25.191 0.42268,-9.11034 -1.49283,-18.41398 -5.45735,-26.64002 -3.99005,-8.3444 -10.10742,-15.78325 -17.63523,-21.18828 -8.62241,-6.28603 -19.18521,-10.1021 -29.8363,-10.67097 -1.49389,-0.0813 -2.99015,-0.10424 -4.48584,-0.0671 z" /><path
             id="donut_icing_inside-1"
             style="display:inline;fill:#fc6cb7;fill-opacity:1;stroke:#8a1212;stroke-width:0;stroke-dasharray:none;stroke-opacity:1;filter:url(#filter5-7)"
             d="m 103.30649,124.83001 c -7.985155,0.17835 -15.907139,2.71758 -22.500879,7.31287 -6.35111,4.358 -11.44961,10.66428 -14.4443,17.75258 -2.46098,5.77995 -3.56168,12.24129 -3.17453,18.50722 0.53458,9.35844 4.39149,18.42113 10.7501,25.31011 6.54195,7.16713 15.5791,11.81026 25.194542,12.98723 6.467727,0.81891 13.168927,0.0483 19.247427,-2.2051 9.11063,-3.32072 16.92775,-9.95904 21.65943,-18.44368 3.1655,-5.60822 4.97471,-12.05241 5.23466,-18.41301 0.30895,-6.65907 -1.09116,-13.45943 -3.98897,-19.47213 -2.91647,-6.09922 -7.38787,-11.53654 -12.89021,-15.48727 -6.30243,-4.59468 -14.02316,-7.38398 -21.80841,-7.79979 -1.09194,-0.0595 -2.18561,-0.0762 -3.27886,-0.049 z" /><path
             id="donut_icing_shadow_inside-3"
             style="display:inline;fill:#d85c9d;fill-opacity:1;stroke:#8a1212;stroke-width:0;filter:url(#filter3-5)"
             d="m 130.63805,165.92098 c 0,3.74013 1.74277,9.38425 -0.87562,12.0872 -7.09622,7.32543 -14.6917,14.3296 -25.54117,14.3296 -6.880057,0 -15.578929,-1.93496 -18.802509,-5.89703 -4.51009,-5.54332 -7.6143,-12.81022 -7.6143,-20.51977 0,-6.8046 0.75531,-14.58175 5.14761,-19.25559 4.4723,-4.75897 13.484222,-7.16121 21.269199,-7.16121 7.11887,1e-5 14.5047,-0.81884 17.98285,4.7877 3.68175,5.9347 8.43394,14.15838 8.43394,21.6291 z"
             sodipodi:nodetypes="sssssssss" /></g><g
           id="hole-4"
           style="display:inline"><path
             id="donut_hole_dough-7"
             style="display:inline;fill:#fba36b;stroke:#8a1212;stroke-width:0"
             d="m 129.27304,165.91989 c 0,3.54476 1.65174,8.89407 -0.82988,11.45583 -6.72557,6.9428 -13.92431,13.58111 -24.20706,13.58111 -6.52068,0 -14.765179,-1.83389 -17.820383,-5.58901 -4.274502,-5.25375 -7.216566,-12.14108 -7.216566,-19.44793 0,-6.44918 0.71585,-13.82009 4.878729,-18.24981 4.238687,-4.51038 12.779882,-6.78714 20.15822,-6.78714 6.74701,1e-5 13.74706,-0.77608 17.04354,4.53762 3.48944,5.62471 7.9934,13.41883 7.9934,20.49933 z"
             sodipodi:nodetypes="sssssssss" /><circle
             style="display:inline;fill:#de8f60;fill-opacity:1;stroke:#8a1212;stroke-width:0;stroke-dasharray:none;stroke-opacity:1;filter:url(#filter2-3)"
             id="donut_hole_shadow-0"
             cx="107.8599"
             cy="78.612076"
             r="22.816431"
             transform="matrix(0.9471247,0,0,0.9471247,2.0499883,91.4666)"
             inkscape:export-filename="donut-fg.png"
             inkscape:export-xdpi="96"
             inkscape:export-ydpi="96" /><circle
             style="display:inline;fill:#8be1f7;fill-opacity:1;stroke:#8a1212;stroke-width:0;stroke-dasharray:none;stroke-opacity:1"
             id="donut_hole-0"
             cx="104.20676"
             cy="165.92204"
             r="19.361622"
             inkscape:export-filename="donut-fg.png"
             inkscape:export-xdpi="96"
             inkscape:export-ydpi="96" /></g></g></g></g><g
     inkscape:groupmode="layer"
     id="layer3"
     inkscape:label="big_piece"><g
       inkscape:groupmode="layer"
       id="layer2-7-2"
       inkscape:label="big_piece_gray"
       transform="translate(-40.042242,48.370879)"
       clip-path="url(#clipPath3-8)"
       style="display:inline"><g
         id="dough-3-9"><ellipse
           style="display:inline;fill:#bababa;fill-opacity:1;stroke:#8a1212;stroke-width:0;stroke-dasharray:none;stroke-opacity:1"
           id="donut_dough_shadow-1-1"
           cx="104.29641"
           cy="168.60905"
           rx="68.411034"
           ry="68.06501" /><ellipse
           style="display:inline;fill:#ffffff;fill-opacity:1;stroke:#8a1212;stroke-width:0;stroke-dasharray:none;stroke-opacity:1"
           id="donut_dough-2-4"
           cx="104.29641"
           cy="168.60905"
           rx="66.970146"
           ry="66.631409"
           inkscape:export-filename="donut-bg.png"
           inkscape:export-xdpi="96"
           inkscape:export-ydpi="96" /></g><g
         id="icing-71-4"><circle
           style="display:inline;fill:#d4d4d4;fill-opacity:1;stroke:#8a1212;stroke-width:0;stroke-dasharray:none;stroke-opacity:1"
           id="donut_icing_shadow_outside-70-1"
           cx="104.20676"
           cy="165.92204"
           r="67.400368" /><circle
           style="display:inline;fill:#ffffff;fill-opacity:1;stroke:#8a1212;stroke-width:0;stroke-dasharray:none;stroke-opacity:1"
           id="donut_icing_outside-9-4"
           cx="104.20676"
           cy="165.92204"
           r="66.487083" /><path
           id="donut_icing_shine-8-9"
           style="display:inline;fill:#ffffff;fill-opacity:1;stroke:#8a1212;stroke-width:0;stroke-dasharray:none;stroke-opacity:1;filter:url(#filter6-0-0)"
           d="m 105.21656,109.69441 c -0.74776,-0.0113 -1.49595,-0.008 -2.24379,0.0108 -10.92456,0.244 -21.762692,3.71771 -30.783653,10.00456 -8.689001,5.96222 -15.664519,14.58984 -19.761584,24.2874 -3.366877,7.90761 -4.872547,16.74744 -4.342888,25.31991 0.731369,12.80337 6.007851,25.20246 14.707113,34.62734 8.950091,9.80541 21.314235,16.15769 34.469214,17.76791 8.848548,1.12035 18.016188,0.0659 26.332238,-3.01687 12.46433,-4.54311 23.15938,-13.62515 29.63282,-25.23309 4.33075,-7.67264 6.80569,-16.48873 7.16132,-25.19071 0.42268,-9.11033 -1.49251,-18.4142 -5.45703,-26.64023 -3.99005,-8.34439 -10.10781,-15.78335 -17.63562,-21.18837 -8.6224,-6.28603 -19.18482,-10.1018 -29.8359,-10.67067 -0.74695,-0.0406 -1.49448,-0.0668 -2.24224,-0.078 z m -0.27027,15.12776 c 0.54657,0.008 1.09321,0.0271 1.63918,0.0568 7.78524,0.41581 15.50606,3.20537 21.80849,7.80004 5.50233,3.95073 9.9737,9.3877 12.89016,15.48691 2.89781,6.0127 4.29786,12.81313 3.98891,19.4722 -0.25995,6.36059 -2.06933,12.80461 -5.23482,18.41283 -4.73168,8.48463 -12.54853,15.12312 -21.65915,18.44383 -6.07849,2.2534 -12.77968,3.02395 -19.247401,2.20504 -9.615433,-1.17697 -18.652902,-5.8202 -25.194845,-12.98732 -6.358604,-6.88898 -10.215669,-15.95166 -10.750248,-25.31009 -0.38715,-6.26592 0.714022,-12.72693 3.175,-18.50688 2.994687,-7.08829 8.092976,-13.39492 14.444079,-17.75292 6.593734,-4.59528 14.515805,-7.13438 22.500955,-7.31273 0.54662,-0.0136 1.09312,-0.016 1.63969,-0.008 z" /><path
           id="donut_icing_shadow_inside-9-5"
           style="display:inline;fill:#d85c9d;fill-opacity:1;stroke:#8a1212;stroke-width:0;filter:url(#filter3-4-0)"
           d="m 130.63805,165.92098 c 0,3.74013 1.74277,9.38425 -0.87562,12.0872 -7.09622,7.32543 -14.6917,14.3296 -25.54117,14.3296 -6.880057,0 -15.578929,-1.93496 -18.802509,-5.89703 -4.51009,-5.54332 -7.6143,-12.81022 -7.6143,-20.51977 0,-6.8046 0.75531,-14.58175 5.14761,-19.25559 4.4723,-4.75897 13.484222,-7.16121 21.269199,-7.16121 7.11887,1e-5 14.5047,-0.81884 17.98285,4.7877 3.68175,5.9347 8.43394,14.15838 8.43394,21.6291 z"
           sodipodi:nodetypes="sssssssss" /></g><g
         id="hole-7-1"><path
           id="donut_hole_dough-0-1"
           style="display:inline;fill:#fba36b;stroke:#8a1212;stroke-width:0"
           d="m 129.27304,165.91989 c 0,3.54476 1.65174,8.89407 -0.82988,11.45583 -6.72557,6.9428 -13.92431,13.58111 -24.20706,13.58111 -6.52068,0 -14.765179,-1.83389 -17.820383,-5.58901 -4.274502,-5.25375 -7.216566,-12.14108 -7.216566,-19.44793 0,-6.44918 0.71585,-13.82009 4.878729,-18.24981 4.238687,-4.51038 12.779882,-6.78714 20.15822,-6.78714 6.74701,1e-5 13.74706,-0.77608 17.04354,4.53762 3.48944,5.62471 7.9934,13.41883 7.9934,20.49933 z"
           sodipodi:nodetypes="sssssssss" /><circle
           style="display:inline;fill:#de8f60;fill-opacity:1;stroke:#8a1212;stroke-width:0;stroke-dasharray:none;stroke-opacity:1;filter:url(#filter2-0-2)"
           id="donut_hole_shadow-9-9"
           cx="107.8599"
           cy="78.612076"
           r="22.816431"
           transform="matrix(0.9471247,0,0,0.9471247,2.0499883,91.4666)"
           inkscape:export-filename="donut-fg.png"
           inkscape:export-xdpi="96"
           inkscape:export-ydpi="96" /><circle
           style="display:inline;fill:#8be1f7;fill-opacity:1;stroke:#8a1212;stroke-width:0;stroke-dasharray:none;stroke-opacity:1"
           id="donut_hole-6-2"
           cx="104.20676"
           cy="165.92204"
           r="19.361622"
           inkscape:export-filename="donut-fg.png"
           inkscape:export-xdpi="96"
           inkscape:export-ydpi="96" /></g></g><g
       inkscape:groupmode="layer"
       id="layer2-7"
       inkscape:label="big_piece_color"
       transform="translate(-40.042242,48.370879)"
       clip-path="url(#clipPath3)"
       style="display:inline"><g
         id="dough-3"><ellipse
           style="display:inline;fill:#d2895a;fill-opacity:1;stroke:#8a1212;stroke-width:0;stroke-dasharray:none;stroke-opacity:1"
           id="donut_dough_shadow-1"
           cx="104.29641"
           cy="168.60905"
           rx="68.411034"
           ry="68.06501" /><ellipse
           style="display:inline;fill:#fba36b;fill-opacity:1;stroke:#8a1212;stroke-width:0;stroke-dasharray:none;stroke-opacity:1"
           id="donut_dough-2"
           cx="104.29641"
           cy="168.60905"
           rx="66.970146"
           ry="66.631409"
           inkscape:export-filename="donut-bg.png"
           inkscape:export-xdpi="96"
           inkscape:export-ydpi="96" /></g><g
         id="icing-71"><circle
           style="display:inline;fill:#d85c9d;fill-opacity:1;stroke:#8a1212;stroke-width:0;stroke-dasharray:none;stroke-opacity:1"
           id="donut_icing_shadow_outside-70"
           cx="104.20676"
           cy="165.92204"
           r="67.400368" /><circle
           style="display:inline;fill:#fc6cb7;fill-opacity:1;stroke:#8a1212;stroke-width:0;stroke-dasharray:none;stroke-opacity:1"
           id="donut_icing_outside-9"
           cx="104.20676"
           cy="165.92204"
           r="66.487083" /><path
           id="donut_icing_shine-8"
           style="display:inline;fill:#ffffff;fill-opacity:0.0841346;stroke:#8a1212;stroke-width:0;stroke-dasharray:none;stroke-opacity:1;filter:url(#filter6-0)"
           d="m 102.9728,109.70518 c -10.924569,0.244 -21.762699,3.71795 -30.783669,10.0048 -8.68901,5.96223 -15.66432,14.58992 -19.76139,24.28749 -3.36688,7.90761 -4.87276,16.74743 -4.3431,25.3199 0.73137,12.80339 6.00805,25.20212 14.70732,34.62701 8.9501,9.80542 21.31391,16.15775 34.468902,17.76797 8.848557,1.12035 18.016527,0.066 26.332587,-3.01682 12.46434,-4.54311 23.15903,-13.62505 29.63248,-25.233 4.33075,-7.67265 6.80596,-16.48901 7.16159,-25.191 0.42268,-9.11034 -1.49283,-18.41398 -5.45735,-26.64002 -3.99005,-8.3444 -10.10742,-15.78325 -17.63523,-21.18828 -8.62241,-6.28603 -19.18521,-10.1021 -29.8363,-10.67097 -1.49389,-0.0813 -2.99015,-0.10424 -4.48584,-0.0671 z" /><path
           id="donut_icing_inside-6"
           style="display:inline;fill:#fc6cb7;fill-opacity:1;stroke:#8a1212;stroke-width:0;stroke-dasharray:none;stroke-opacity:1;filter:url(#filter5-2)"
           d="m 103.30649,124.83001 c -7.985155,0.17835 -15.907139,2.71758 -22.500879,7.31287 -6.35111,4.358 -11.44961,10.66428 -14.4443,17.75258 -2.46098,5.77995 -3.56168,12.24129 -3.17453,18.50722 0.53458,9.35844 4.39149,18.42113 10.7501,25.31011 6.54195,7.16713 15.5791,11.81026 25.194542,12.98723 6.467727,0.81891 13.168927,0.0483 19.247427,-2.2051 9.11063,-3.32072 16.92775,-9.95904 21.65943,-18.44368 3.1655,-5.60822 4.97471,-12.05241 5.23466,-18.41301 0.30895,-6.65907 -1.09116,-13.45943 -3.98897,-19.47213 -2.91647,-6.09922 -7.38787,-11.53654 -12.89021,-15.48727 -6.30243,-4.59468 -14.02316,-7.38398 -21.80841,-7.79979 -1.09194,-0.0595 -2.18561,-0.0762 -3.27886,-0.049 z" /><path
           id="donut_icing_shadow_inside-9"
           style="display:inline;fill:#d85c9d;fill-opacity:1;stroke:#8a1212;stroke-width:0;filter:url(#filter3-4)"
           d="m 130.63805,165.92098 c 0,3.74013 1.74277,9.38425 -0.87562,12.0872 -7.09622,7.32543 -14.6917,14.3296 -25.54117,14.3296 -6.880057,0 -15.578929,-1.93496 -18.802509,-5.89703 -4.51009,-5.54332 -7.6143,-12.81022 -7.6143,-20.51977 0,-6.8046 0.75531,-14.58175 5.14761,-19.25559 4.4723,-4.75897 13.484222,-7.16121 21.269199,-7.16121 7.11887,1e-5 14.5047,-0.81884 17.98285,4.7877 3.68175,5.9347 8.43394,14.15838 8.43394,21.6291 z"
           sodipodi:nodetypes="sssssssss" /></g><g
         id="hole-7"><path
           id="donut_hole_dough-0"
           style="display:inline;fill:#fba36b;stroke:#8a1212;stroke-width:0"
           d="m 129.27304,165.91989 c 0,3.54476 1.65174,8.89407 -0.82988,11.45583 -6.72557,6.9428 -13.92431,13.58111 -24.20706,13.58111 -6.52068,0 -14.765179,-1.83389 -17.820383,-5.58901 -4.274502,-5.25375 -7.216566,-12.14108 -7.216566,-19.44793 0,-6.44918 0.71585,-13.82009 4.878729,-18.24981 4.238687,-4.51038 12.779882,-6.78714 20.15822,-6.78714 6.74701,1e-5 13.74706,-0.77608 17.04354,4.53762 3.48944,5.62471 7.9934,13.41883 7.9934,20.49933 z"
           sodipodi:nodetypes="sssssssss" /><circle
           style="display:inline;fill:#de8f60;fill-opacity:1;stroke:#8a1212;stroke-width:0;stroke-dasharray:none;stroke-opacity:1;filter:url(#filter2-0)"
           id="donut_hole_shadow-9"
           cx="107.8599"
           cy="78.612076"
           r="22.816431"
           transform="matrix(0.9471247,0,0,0.9471247,2.0499883,91.4666)"
           inkscape:export-filename="donut-fg.png"
           inkscape:export-xdpi="96"
           inkscape:export-ydpi="96" /><circle
           style="display:inline;fill:#8be1f7;fill-opacity:1;stroke:#8a1212;stroke-width:0;stroke-dasharray:none;stroke-opacity:1"
           id="donut_hole-6"
           cx="104.20676"
           cy="165.92204"
           r="19.361622"
           inkscape:export-filename="donut-fg.png"
           inkscape:export-xdpi="96"
           inkscape:export-ydpi="96" /></g></g></g></svg>
