<?xml version="1.0" encoding="UTF-8" standalone="no"?>
<!-- Created with Inkscape (http://www.inkscape.org/) -->

<svg
   width="210mm"
   height="297mm"
   viewBox="0 0 210 297"
   version="1.1"
   id="svg1"
   inkscape:version="1.3 (0e150ed6c4, 2023-07-21)"
   sodipodi:docname="donut_piece_small.svg"
   xmlns:inkscape="http://www.inkscape.org/namespaces/inkscape"
   xmlns:sodipodi="http://sodipodi.sourceforge.net/DTD/sodipodi-0.dtd"
   xmlns="http://www.w3.org/2000/svg"
   xmlns:svg="http://www.w3.org/2000/svg">
  <sodipodi:namedview
     id="namedview1"
     pagecolor="#ffffff"
     bordercolor="#000000"
     borderopacity="0.25"
     inkscape:showpageshadow="2"
     inkscape:pageopacity="0.0"
     inkscape:pagecheckerboard="0"
     inkscape:deskcolor="#d1d1d1"
     inkscape:document-units="mm"
     inkscape:zoom="1.8101934"
     inkscape:cx="234.22912"
     inkscape:cy="560.43737"
     inkscape:window-width="1920"
     inkscape:window-height="1009"
     inkscape:window-x="-8"
     inkscape:window-y="-8"
     inkscape:window-maximized="1"
     inkscape:current-layer="g2" />
  <defs
     id="defs1">
    <clipPath
       clipPathUnits="userSpaceOnUse"
       id="clipPath10">
      <path
         sodipodi:type="star"
         style="display:inline;fill:#b43030;stroke:#002065;stroke-width:0"
         id="path10"
         inkscape:flatsided="false"
         sodipodi:sides="3"
         sodipodi:cx="93.91851"
         sodipodi:cy="215.15196"
         sodipodi:r1="23.576141"
         sodipodi:r2="11.788071"
         sodipodi:arg1="-1.586668"
         sodipodi:arg2="-0.53947046"
         inkscape:rounded="0"
         inkscape:randomized="0"
         d="m 93.544333,191.57879 10.488117,17.51786 10.48811,17.51785 -20.414961,0.32405 -20.414966,0.32405 9.92685,-17.84191 z"
         inkscape:transform-center-x="-0.1304897"
         inkscape:transform-center-y="-5.7312738"
         transform="matrix(0.69748305,0,0,1,40.102081,9.860901)" />
    </clipPath>
    <filter
       inkscape:collect="always"
       style="color-interpolation-filters:sRGB"
       id="filter6"
       x="-0.021428058"
       y="-0.021428876"
       width="1.0428561"
       height="1.0428577">
      <feGaussianBlur
         inkscape:collect="always"
         stdDeviation="1.0041201"
         id="feGaussianBlur6" />
    </filter>
    <filter
       inkscape:collect="always"
       style="color-interpolation-filters:sRGB"
       id="filter5"
       x="-0.029315938"
       y="-0.029317052"
       width="1.0586319"
       height="1.0586341">
      <feGaussianBlur
         inkscape:collect="always"
         stdDeviation="1.0041201"
         id="feGaussianBlur5" />
    </filter>
  </defs>
  <g
     inkscape:label="Layer 1"
     inkscape:groupmode="layer"
     id="layer1">
    <g
       inkscape:groupmode="layer"
       id="layer2"
       inkscape:label="Donut BG"
       clip-path="url(#clipPath10)"
       transform="translate(-17.09059,-54.282986)">
      <g
         id="g2"
         style="display:inline">
        <ellipse
           style="display:inline;fill:#ffffff;fill-opacity:1;stroke:#8a1212;stroke-width:0;stroke-dasharray:none;stroke-opacity:1"
           id="dough_outline"
           cx="104.29641"
           cy="168.60905"
           rx="68.411034"
           ry="68.06501"
           inkscape:export-filename="hole_small.png"
           inkscape:export-xdpi="96"
           inkscape:export-ydpi="96" />
        <ellipse
           style="display:inline;fill:#ffffff;fill-opacity:1;stroke:#8a1212;stroke-width:0;stroke-dasharray:none;stroke-opacity:1"
           id="dough"
           cx="104.29641"
           cy="168.60905"
           rx="66.970146"
           ry="66.631409"
           inkscape:export-filename="donut_piece_small_dough.png"
           inkscape:export-xdpi="96"
           inkscape:export-ydpi="96" />
        <circle
           style="display:inline;fill:#d4d4d4;fill-opacity:1;stroke:#8a1212;stroke-width:0;stroke-dasharray:none;stroke-opacity:1"
           id="icing_outline"
           cx="104.20676"
           cy="165.92204"
           r="67.400368" />
        <circle
           style="display:inline;fill:#ffffff;fill-opacity:1;stroke:#8a1212;stroke-width:0;stroke-dasharray:none;stroke-opacity:1"
           id="icing"
           cx="104.20676"
           cy="165.92204"
           r="66.487083" />
        <path
           id="icing_shine"
           style="display:inline;fill:#ffffff;fill-opacity:0.0841346;stroke:#8a1212;stroke-width:0;stroke-dasharray:none;stroke-opacity:1;filter:url(#filter6)"
           d="m 102.9728,109.70518 c -10.924569,0.244 -21.762699,3.71795 -30.783669,10.0048 -8.68901,5.96223 -15.66432,14.58992 -19.76139,24.28749 -3.36688,7.90761 -4.87276,16.74743 -4.3431,25.3199 0.73137,12.80339 6.00805,25.20212 14.70732,34.62701 8.9501,9.80542 21.31391,16.15775 34.468902,17.76797 8.848557,1.12035 18.016527,0.066 26.332587,-3.01682 12.46434,-4.54311 23.15903,-13.62505 29.63248,-25.233 4.33075,-7.67265 6.80596,-16.48901 7.16159,-25.191 0.42268,-9.11034 -1.49283,-18.41398 -5.45735,-26.64002 -3.99005,-8.3444 -10.10742,-15.78325 -17.63523,-21.18828 -8.62241,-6.28603 -19.18521,-10.1021 -29.8363,-10.67097 -1.49389,-0.0813 -2.99015,-0.10424 -4.48584,-0.0671 z"
           inkscape:export-filename="donut_piece_small_icing_shine.png"
           inkscape:export-xdpi="96"
           inkscape:export-ydpi="96" />
        <path
           id="icing_tip"
           style="display:inline;fill:#ffffff;fill-opacity:1;stroke:#8a1212;stroke-width:0;stroke-dasharray:none;stroke-opacity:1;filter:url(#filter5)"
           d="m 103.30649,124.83001 c -7.985155,0.17835 -15.907139,2.71758 -22.500879,7.31287 -6.35111,4.358 -11.44961,10.66428 -14.4443,17.75258 -2.46098,5.77995 -3.56168,12.24129 -3.17453,18.50722 0.53458,9.35844 4.39149,18.42113 10.7501,25.31011 6.54195,7.16713 15.5791,11.81026 25.194542,12.98723 6.467727,0.81891 13.168927,0.0483 19.247427,-2.2051 9.11063,-3.32072 16.92775,-9.95904 21.65943,-18.44368 3.1655,-5.60822 4.97471,-12.05241 5.23466,-18.41301 0.30895,-6.65907 -1.09116,-13.45943 -3.98897,-19.47213 -2.91647,-6.09922 -7.38787,-11.53654 -12.89021,-15.48727 -6.30243,-4.59468 -14.02316,-7.38398 -21.80841,-7.79979 -1.09194,-0.0595 -2.18561,-0.0762 -3.27886,-0.049 z"
           inkscape:export-filename="donut_piece_small_icing.png"
           inkscape:export-xdpi="96"
           inkscape:export-ydpi="96" />
      </g>
    </g>
  </g>
</svg>
