<?xml version="1.0" encoding="UTF-8" standalone="no"?>
<!-- Created with Inkscape (http://www.inkscape.org/) -->

<svg
   width="210mm"
   height="297mm"
   viewBox="0 0 210 297"
   version="1.1"
   id="svg1"
   sodipodi:docname="donut.svg"
   inkscape:version="1.3 (0e150ed6c4, 2023-07-21)"
   xmlns:inkscape="http://www.inkscape.org/namespaces/inkscape"
   xmlns:sodipodi="http://sodipodi.sourceforge.net/DTD/sodipodi-0.dtd"
   xmlns="http://www.w3.org/2000/svg"
   xmlns:svg="http://www.w3.org/2000/svg">
  <sodipodi:namedview
     id="namedview1"
     pagecolor="#ffffff"
     bordercolor="#000000"
     borderopacity="0.25"
     inkscape:showpageshadow="2"
     inkscape:pageopacity="0.0"
     inkscape:pagecheckerboard="0"
     inkscape:deskcolor="#d1d1d1"
     inkscape:document-units="mm"
     inkscape:zoom="1"
     inkscape:cx="208.5"
     inkscape:cy="708.5"
     inkscape:window-width="1920"
     inkscape:window-height="1009"
     inkscape:window-x="-32000"
     inkscape:window-y="-32000"
     inkscape:window-maximized="0"
     inkscape:current-layer="layer1"
     inkscape:export-bgcolor="#ffffff04" />
  <defs
     id="defs1">
    <filter
       inkscape:collect="always"
       style="color-interpolation-filters:sRGB"
       id="filter2"
       x="-0.035291503"
       y="-0.035291503"
       width="1.070583"
       height="1.070583">
      <feGaussianBlur
         inkscape:collect="always"
         stdDeviation="0.67102157"
         id="feGaussianBlur2" />
    </filter>
    <filter
       inkscape:collect="always"
       style="color-interpolation-filters:sRGB"
       id="filter3"
       x="-0.023508447"
       y="-0.023742496"
       width="1.0470169"
       height="1.047485">
      <feGaussianBlur
         inkscape:collect="always"
         stdDeviation="0.5230811"
         id="feGaussianBlur3" />
    </filter>
    <filter
       inkscape:collect="always"
       style="color-interpolation-filters:sRGB"
       id="filter5"
       x="-0.029315938"
       y="-0.029317052"
       width="1.0586319"
       height="1.0586341">
      <feGaussianBlur
         inkscape:collect="always"
         stdDeviation="1.0041201"
         id="feGaussianBlur5" />
    </filter>
    <filter
       inkscape:collect="always"
       style="color-interpolation-filters:sRGB"
       id="filter6"
       x="-0.021428058"
       y="-0.021428876"
       width="1.0428561"
       height="1.0428577">
      <feGaussianBlur
         inkscape:collect="always"
         stdDeviation="1.0041201"
         id="feGaussianBlur6" />
    </filter>
  </defs>
  <g
     inkscape:groupmode="layer"
     id="layer3"
     inkscape:label="BG">
    <rect
       style="fill:#8be1f7;fill-opacity:1;stroke:#8a1212;stroke-width:0;stroke-dasharray:none;stroke-opacity:1"
       id="rect7"
       width="138.69211"
       height="141.35052"
       x="35.244434"
       y="96.3647" />
  </g>
  <g
     inkscape:groupmode="layer"
     id="layer2"
     inkscape:label="Donut BG">
    <ellipse
       style="fill:#d2895a;fill-opacity:1;stroke:#8a1212;stroke-width:0;stroke-dasharray:none;stroke-opacity:1"
       id="circle1"
       cx="104.29641"
       cy="168.60905"
       rx="68.411034"
       ry="68.06501" />
    <ellipse
       style="fill:#fba36b;fill-opacity:1;stroke:#8a1212;stroke-width:0;stroke-dasharray:none;stroke-opacity:1"
       id="circle8"
       cx="104.29641"
       cy="168.60905"
       rx="66.970146"
       ry="66.631409"
       inkscape:export-filename="donut-bg.png"
       inkscape:export-xdpi="96"
       inkscape:export-ydpi="96" />
    <circle
       style="fill:#8be1f7;fill-opacity:1;stroke:#8a1212;stroke-width:0;stroke-dasharray:none;stroke-opacity:1"
       id="circle3"
       cx="104.20676"
       cy="165.92204"
       r="38.940788"
       inkscape:export-filename="donut-fg.png"
       inkscape:export-xdpi="96"
       inkscape:export-ydpi="96" />
  </g>
  <g
     inkscape:label="Donut FG"
     inkscape:groupmode="layer"
     id="layer1"
     style="display:inline">
    <circle
       style="fill:#d85c9d;fill-opacity:1;stroke:#8a1212;stroke-width:0;stroke-dasharray:none;stroke-opacity:1"
       id="circle2"
       cx="104.20676"
       cy="165.92204"
       r="67.400368" />
    <circle
       style="fill:#fc6cb7;fill-opacity:1;stroke:#8a1212;stroke-width:0;stroke-dasharray:none;stroke-opacity:1"
       id="path1-5"
       cx="104.20676"
       cy="165.92204"
       r="66.487083" />
    <path
       id="circle6-8"
       style="fill:#ffffff;fill-opacity:0.0841346;stroke:#8a1212;stroke-width:0;stroke-dasharray:none;stroke-opacity:1;filter:url(#filter6)"
       d="m 102.9728,109.70518 c -10.924569,0.244 -21.762699,3.71795 -30.783669,10.0048 -8.68901,5.96223 -15.66432,14.58992 -19.76139,24.28749 -3.36688,7.90761 -4.87276,16.74743 -4.3431,25.3199 0.73137,12.80339 6.00805,25.20212 14.70732,34.62701 8.9501,9.80542 21.31391,16.15775 34.468902,17.76797 8.848557,1.12035 18.016527,0.066 26.332587,-3.01682 12.46434,-4.54311 23.15903,-13.62505 29.63248,-25.233 4.33075,-7.67265 6.80596,-16.48901 7.16159,-25.191 0.42268,-9.11034 -1.49283,-18.41398 -5.45735,-26.64002 -3.99005,-8.3444 -10.10742,-15.78325 -17.63523,-21.18828 -8.62241,-6.28603 -19.18521,-10.1021 -29.8363,-10.67097 -1.49389,-0.0813 -2.99015,-0.10424 -4.48584,-0.0671 z" />
    <path
       id="path7-7"
       style="fill:#fc6cb7;fill-opacity:1;stroke:#8a1212;stroke-width:0;stroke-dasharray:none;stroke-opacity:1;filter:url(#filter5)"
       d="m 103.30649,124.83001 c -7.985155,0.17835 -15.907139,2.71758 -22.500879,7.31287 -6.35111,4.358 -11.44961,10.66428 -14.4443,17.75258 -2.46098,5.77995 -3.56168,12.24129 -3.17453,18.50722 0.53458,9.35844 4.39149,18.42113 10.7501,25.31011 6.54195,7.16713 15.5791,11.81026 25.194542,12.98723 6.467727,0.81891 13.168927,0.0483 19.247427,-2.2051 9.11063,-3.32072 16.92775,-9.95904 21.65943,-18.44368 3.1655,-5.60822 4.97471,-12.05241 5.23466,-18.41301 0.30895,-6.65907 -1.09116,-13.45943 -3.98897,-19.47213 -2.91647,-6.09922 -7.38787,-11.53654 -12.89021,-15.48727 -6.30243,-4.59468 -14.02316,-7.38398 -21.80841,-7.79979 -1.09194,-0.0595 -2.18561,-0.0762 -3.27886,-0.049 z" />
    <path
       id="path8"
       style="fill:#d85c9d;fill-opacity:1;stroke:#8a1212;stroke-width:0;filter:url(#filter3)"
       d="m 130.63805,165.92098 c 0,3.74013 1.74277,9.38425 -0.87562,12.0872 -7.09622,7.32543 -14.6917,14.3296 -25.54117,14.3296 -6.880057,0 -15.578929,-1.93496 -18.802509,-5.89703 -4.51009,-5.54332 -7.6143,-12.81022 -7.6143,-20.51977 0,-6.8046 0.75531,-14.58175 5.14761,-19.25559 4.4723,-4.75897 13.484222,-7.16121 21.269199,-7.16121 7.11887,1e-5 14.5047,-0.81884 17.98285,4.7877 3.68175,5.9347 8.43394,14.15838 8.43394,21.6291 z"
       sodipodi:nodetypes="sssssssss" />
    <path
       id="circle4-9"
       style="fill:#fba36b;stroke:#8a1212;stroke-width:0"
       d="m 129.27304,165.91989 c 0,3.54476 1.65174,8.89407 -0.82988,11.45583 -6.72557,6.9428 -13.92431,13.58111 -24.20706,13.58111 -6.52068,0 -14.765179,-1.83389 -17.820383,-5.58901 -4.274502,-5.25375 -7.216566,-12.14108 -7.216566,-19.44793 0,-6.44918 0.71585,-13.82009 4.878729,-18.24981 4.238687,-4.51038 12.779882,-6.78714 20.15822,-6.78714 6.74701,1e-5 13.74706,-0.77608 17.04354,4.53762 3.48944,5.62471 7.9934,13.41883 7.9934,20.49933 z"
       sodipodi:nodetypes="sssssssss" />
    <circle
       style="fill:#de8f60;fill-opacity:1;stroke:#8a1212;stroke-width:0;stroke-dasharray:none;stroke-opacity:1;filter:url(#filter2)"
       id="circle7-5"
       cx="107.8599"
       cy="78.612076"
       r="22.816431"
       transform="matrix(0.9471247,0,0,0.9471247,2.0499883,91.4666)"
       inkscape:export-filename="donut-fg.png"
       inkscape:export-xdpi="96"
       inkscape:export-ydpi="96" />
    <circle
       style="fill:#8be1f7;fill-opacity:1;stroke:#8a1212;stroke-width:0;stroke-dasharray:none;stroke-opacity:1"
       id="circle3-9"
       cx="104.20676"
       cy="165.92204"
       r="19.361622"
       inkscape:export-filename="donut-fg.png"
       inkscape:export-xdpi="96"
       inkscape:export-ydpi="96" />
  </g>
</svg>
