<?xml version="1.0" encoding="UTF-8" standalone="no"?>
<!-- Created with Inkscape (http://www.inkscape.org/) -->

<svg
   width="210mm"
   height="297mm"
   viewBox="0 0 210 297"
   version="1.1"
   id="svg1"
   inkscape:version="1.3 (0e150ed6c4, 2023-07-21)"
   sodipodi:docname="donut_piece_big.svg"
   xml:space="preserve"
   xmlns:inkscape="http://www.inkscape.org/namespaces/inkscape"
   xmlns:sodipodi="http://sodipodi.sourceforge.net/DTD/sodipodi-0.dtd"
   xmlns="http://www.w3.org/2000/svg"
   xmlns:svg="http://www.w3.org/2000/svg"><sodipodi:namedview
     id="namedview1"
     pagecolor="#ffffff"
     bordercolor="#000000"
     borderopacity="0.25"
     inkscape:showpageshadow="2"
     inkscape:pageopacity="0.0"
     inkscape:pagecheckerboard="0"
     inkscape:deskcolor="#d1d1d1"
     inkscape:document-units="mm"
     inkscape:zoom="2.0938813"
     inkscape:cx="377.52857"
     inkscape:cy="677.45007"
     inkscape:window-width="1920"
     inkscape:window-height="1009"
     inkscape:window-x="-8"
     inkscape:window-y="-8"
     inkscape:window-maximized="1"
     inkscape:current-layer="layer1" /><defs
     id="defs1"><filter
       inkscape:collect="always"
       style="color-interpolation-filters:sRGB"
       id="filter6"
       x="-0.077551752"
       y="-0.088759225"
       width="1.1551035"
       height="1.1775184"><feGaussianBlur
         inkscape:collect="always"
         stdDeviation="1.0041201"
         id="feGaussianBlur6" /></filter></defs><g
     inkscape:label="Layer 1"
     inkscape:groupmode="layer"
     id="layer1"><g
       id="g1"><path
         id="circle1-0-8"
         style="fill:#d2895a;fill-opacity:1;stroke:#8a1212;stroke-width:0;stroke-dasharray:none;stroke-opacity:1"
         d="m 105.02372,130.99183 c -0.0575,0 -4.85635,7.67443 -10.664382,17.05462 -5.577907,9.00846 -11.397173,17.98838 -12.742028,20.33951 a 66.95378,66.615127 0 0 0 12.482575,3.28135 c 0.420742,0.0613 0.8408,0.12096 1.260348,0.176 a 66.95378,66.615127 0 0 0 8.864897,0.63067 66.95378,66.615127 0 0 0 9.37217,-0.66658 c 0.14147,-0.0209 0.28408,-0.0476 0.42585,-0.0693 a 66.95378,66.615127 0 0 0 14.0393,-3.80835 c -1.47851,-2.55225 -6.9424,-11.11055 -12.37435,-19.88331 -5.80805,-9.38019 -10.60693,-17.05462 -10.66438,-17.05462 z"
         inkscape:export-filename="donut_piece_big.png"
         inkscape:export-xdpi="96"
         inkscape:export-ydpi="96" /><path
         id="circle8-5-8"
         style="display:inline;fill:#fba36b;fill-opacity:1;stroke:#8a1212;stroke-width:0;stroke-dasharray:none;stroke-opacity:1"
         d="m 105.02372,130.99183 c -0.0575,0 -4.85635,7.67443 -10.664382,17.05462 -4.8578,7.84547 -9.89457,15.66244 -12.011716,19.11709 a 65.543585,65.212064 0 0 0 21.877508,3.90747 65.543585,65.212064 0 0 0 23.1075,-4.36417 c -2.12164,-3.48444 -6.89375,-10.98776 -11.64453,-18.66039 -5.80805,-9.38019 -10.60693,-17.05462 -10.66438,-17.05462 z" /><g
         id="g6"
         style="display:inline"
         transform="translate(0.65111833,-64.525447)"><path
           id="circle2"
           style="fill:#d85c9d;fill-opacity:1;stroke:#8a1212;stroke-width:0;stroke-dasharray:none;stroke-opacity:1"
           d="m 104.29751,194.99367 c -0.0587,0 -4.96204,7.84145 -10.896489,17.42581 -6.951323,11.22656 -9.945585,16.18729 -10.443807,17.32917 a 67.400368,67.400368 0 0 0 11.043254,2.75384 c 0.443551,0.0672 0.864157,0.12495 1.293461,0.18241 a 67.400368,67.400368 0 0 0 8.912631,0.63769 67.400368,67.400368 0 0 0 9.11779,-0.65215 c 0.25723,-0.0335 0.51032,-0.062 0.76843,-0.0982 a 67.400368,67.400368 0 0 0 11.51609,-2.88044 c -0.54942,-1.21593 -3.54347,-6.17486 -10.41486,-17.27233 -5.93447,-9.58436 -10.8378,-17.42581 -10.8965,-17.42581 z" /><path
           id="path1-5"
           style="fill:#fc6cb7;fill-opacity:1;stroke:#8a1212;stroke-width:0;stroke-dasharray:none;stroke-opacity:1"
           d="m 104.29751,194.99367 c -0.0587,0 -4.96204,7.84145 -10.896489,17.42581 -5.888586,9.51021 -8.927215,14.50866 -10.024711,16.51372 a 66.487083,66.487083 0 0 0 20.83025,3.47575 66.487083,66.487083 0 0 0 20.98063,-3.53156 c -1.11855,-2.03517 -4.14916,-7.01966 -9.99318,-16.45791 -5.93447,-9.58436 -10.8378,-17.42581 -10.8965,-17.42581 z" /><path
           id="circle6-8"
           style="fill:#ffffff;fill-opacity:0.0841346;stroke:#8a1212;stroke-width:0;stroke-dasharray:none;stroke-opacity:1;filter:url(#filter6)"
           d="m 104.29751,194.99367 c -0.0587,0 -4.96204,7.84145 -10.896489,17.42581 -1.840229,2.97201 -3.342321,5.40914 -4.655013,7.54837 2.783,0.79651 5.627801,1.39123 8.514726,1.7446 7.530836,0.95351 15.288386,0.31671 22.559866,-1.79007 -1.30777,-2.13103 -2.79749,-4.54886 -4.62659,-7.5029 -5.93447,-9.58436 -10.8378,-17.42581 -10.8965,-17.42581 z" /><path
           id="path7-7"
           style="fill:#fc6cb7;fill-opacity:1;stroke:#8a1212;stroke-width:0;stroke-dasharray:none;stroke-opacity:1"
           d="m 104.29751,194.99367 c -0.0443,0 -3.2246,5.08608 -7.155115,11.40808 0.660064,0.11453 1.322771,0.21663 1.989026,0.29818 4.080539,0.51666 8.253279,0.39741 12.304679,-0.32453 -3.92174,-6.30778 -7.0943,-11.38173 -7.13859,-11.38173 z" /></g></g></g></svg>
