<?xml version="1.0" encoding="UTF-8" standalone="no"?>
<!-- Created with Inkscape (http://www.inkscape.org/) -->

<svg
   width="210mm"
   height="297mm"
   viewBox="0 0 210 297"
   version="1.1"
   id="svg1"
   inkscape:version="1.3 (0e150ed6c4, 2023-07-21)"
   sodipodi:docname="donut_gray_icing_shine.svg"
   xmlns:inkscape="http://www.inkscape.org/namespaces/inkscape"
   xmlns:sodipodi="http://sodipodi.sourceforge.net/DTD/sodipodi-0.dtd"
   xmlns="http://www.w3.org/2000/svg"
   xmlns:svg="http://www.w3.org/2000/svg">
  <sodipodi:namedview
     id="namedview1"
     pagecolor="#ffffff"
     bordercolor="#000000"
     borderopacity="0.25"
     inkscape:showpageshadow="2"
     inkscape:pageopacity="0.0"
     inkscape:pagecheckerboard="0"
     inkscape:deskcolor="#d1d1d1"
     inkscape:document-units="mm"
     inkscape:zoom="0.72426347"
     inkscape:cx="396.95499"
     inkscape:cy="561.25984"
     inkscape:window-width="1920"
     inkscape:window-height="1009"
     inkscape:window-x="-8"
     inkscape:window-y="-8"
     inkscape:window-maximized="1"
     inkscape:current-layer="layer1" />
  <defs
     id="defs1">
    <filter
       inkscape:collect="always"
       style="color-interpolation-filters:sRGB"
       id="filter6"
       x="-0.021427996"
       y="-0.021428769"
       width="1.042856"
       height="1.0428575">
      <feGaussianBlur
         inkscape:collect="always"
         stdDeviation="1.0041201"
         id="feGaussianBlur6" />
    </filter>
  </defs>
  <g
     inkscape:label="Layer 1"
     inkscape:groupmode="layer"
     id="layer1">
    <path
       id="circle6-8"
       style="display:inline;fill:#ffffff;fill-opacity:1;stroke:#8a1212;stroke-width:0;stroke-dasharray:none;stroke-opacity:1;filter:url(#filter6)"
       d="m 110.18096,64.3288 c -0.74777,-0.0113 -1.49543,-0.008 -2.24328,0.0109 -10.924556,0.244 -21.763205,3.71823 -30.784166,10.00508 -8.689001,5.96222 -15.664001,14.58984 -19.761067,24.2874 -3.366877,7.9076 -4.873064,16.74744 -4.343405,25.3199 0.73137,12.80338 6.008369,25.20195 14.70763,34.62683 8.950091,9.80541 21.313718,16.15821 34.468698,17.76843 8.84855,1.12034 18.01671,0.0659 26.33276,-3.01688 12.46433,-4.5431 23.15886,-13.62514 29.6323,-25.23308 4.33075,-7.67264 6.80621,-16.48925 7.16184,-25.19123 0.42268,-9.11033 -1.49304,-18.41368 -5.45755,-26.63971 -3.99005,-8.3444 -10.1073,-15.78335 -17.6351,-21.18838 -8.6224,-6.28602 -19.18534,-10.10231 -29.83642,-10.67118 -0.74695,-0.0406 -1.49448,-0.0668 -2.24224,-0.078 z m -0.26975,15.12776 c 0.54656,0.008 1.09269,0.0276 1.63866,0.0574 7.78524,0.41581 15.50606,3.20485 21.80848,7.79952 5.50234,3.95073 9.97371,9.38822 12.89017,15.48743 2.89781,6.01269 4.29786,12.81313 3.98891,19.4722 -0.25995,6.36059 -2.06881,12.80461 -5.23431,18.41283 -4.73167,8.48463 -12.54904,15.12311 -21.65966,18.44383 -6.07849,2.2534 -12.77968,3.02394 -19.2474,2.20503 -9.615437,-1.17696 -18.652389,-5.82019 -25.194332,-12.98732 -6.358604,-6.88897 -10.215669,-15.95165 -10.750248,-25.31008 -0.38715,-6.26592 0.713506,-12.72745 3.174483,-18.5074 2.994687,-7.08829 8.092976,-13.39441 14.44408,-17.7524 6.593733,-4.59529 14.515807,-7.13438 22.500957,-7.31273 0.54662,-0.0136 1.09364,-0.0165 1.64021,-0.008 z"
       inkscape:export-filename="donut-highlight.png"
       inkscape:export-xdpi="96"
       inkscape:export-ydpi="96" />
  </g>
</svg>
