<?xml version="1.0" encoding="UTF-8" standalone="no"?>
<!-- Created with Inkscape (http://www.inkscape.org/) -->

<svg
   width="210mm"
   height="297mm"
   viewBox="0 0 210 297"
   version="1.1"
   id="svg1"
   inkscape:version="1.3 (0e150ed6c4, 2023-07-21)"
   sodipodi:docname="donut_gray_hole_edge.svg"
   xmlns:inkscape="http://www.inkscape.org/namespaces/inkscape"
   xmlns:sodipodi="http://sodipodi.sourceforge.net/DTD/sodipodi-0.dtd"
   xmlns="http://www.w3.org/2000/svg"
   xmlns:svg="http://www.w3.org/2000/svg">
  <sodipodi:namedview
     id="namedview1"
     pagecolor="#ffffff"
     bordercolor="#000000"
     borderopacity="0.25"
     inkscape:showpageshadow="2"
     inkscape:pageopacity="0.0"
     inkscape:pagecheckerboard="0"
     inkscape:deskcolor="#d1d1d1"
     inkscape:document-units="mm"
     inkscape:zoom="1.0242632"
     inkscape:cx="451.5441"
     inkscape:cy="694.64567"
     inkscape:window-width="1920"
     inkscape:window-height="1009"
     inkscape:window-x="-8"
     inkscape:window-y="-8"
     inkscape:window-maximized="1"
     inkscape:current-layer="layer1" />
  <defs
     id="defs1">
    <filter
       inkscape:collect="always"
       style="color-interpolation-filters:sRGB"
       id="filter2"
       x="-0.048481211"
       y="-0.048481211"
       width="1.0969624"
       height="1.0969624">
      <feGaussianBlur
         inkscape:collect="always"
         stdDeviation="0.92180663"
         id="feGaussianBlur2" />
    </filter>
  </defs>
  <g
     inkscape:label="Layer 1"
     inkscape:groupmode="layer"
     id="layer1">
    <path
       id="circle4-9"
       style="display:inline;fill:#ffffff;stroke:#8a1212;stroke-width:0;fill-opacity:1"
       d="m 189.5093,195.46828 c 0,3.54476 1.65174,8.89407 -0.82988,11.45583 -6.72557,6.9428 -13.92431,13.58111 -24.20706,13.58111 -6.52068,0 -14.76518,-1.83389 -17.82038,-5.58901 -4.2745,-5.25375 -7.21657,-12.14108 -7.21657,-19.44793 0,-6.44918 0.71585,-13.82009 4.87873,-18.24981 4.23869,-4.51038 12.77989,-6.78714 20.15822,-6.78714 6.74701,1e-5 13.74706,-0.77608 17.04354,4.53762 3.48944,5.62471 7.9934,13.41883 7.9934,20.49933 z"
       sodipodi:nodetypes="sssssssss" />
    <circle
       style="display:inline;fill:#cdcdcd;fill-opacity:1;stroke:#8a1212;stroke-width:0;stroke-dasharray:none;stroke-opacity:1;filter:url(#filter2)"
       id="circle7-5"
       cx="107.8599"
       cy="78.612076"
       r="22.816431"
       transform="matrix(0.9471247,0,0,0.9471247,62.286252,121.01499)"
       inkscape:export-filename="Sprites\donut-hole-edge.png"
       inkscape:export-xdpi="96"
       inkscape:export-ydpi="96" />
  </g>
</svg>
