<?xml version="1.0" encoding="UTF-8" standalone="no"?>
<!-- Created with Inkscape (http://www.inkscape.org/) -->

<svg
   width="35.888798mm"
   height="30.867973mm"
   viewBox="0 0 35.888798 30.867973"
   version="1.1"
   id="svg1"
   xmlns:inkscape="http://www.inkscape.org/namespaces/inkscape"
   xmlns:sodipodi="http://sodipodi.sourceforge.net/DTD/sodipodi-0.dtd"
   xmlns="http://www.w3.org/2000/svg"
   xmlns:svg="http://www.w3.org/2000/svg">
  <sodipodi:namedview
     id="namedview1"
     pagecolor="#ffffff"
     bordercolor="#000000"
     borderopacity="0.25"
     inkscape:showpageshadow="2"
     inkscape:pageopacity="0.0"
     inkscape:pagecheckerboard="0"
     inkscape:deskcolor="#d1d1d1"
     inkscape:document-units="mm" />
  <defs
     id="defs1">
    <filter
       inkscape:collect="always"
       style="color-interpolation-filters:sRGB"
       id="filter6"
       x="-0.077462136"
       y="-0.092389858"
       width="1.1549243"
       height="1.1847797">
      <feGaussianBlur
         inkscape:collect="always"
         stdDeviation="1.0029597"
         id="feGaussianBlur6" />
    </filter>
  </defs>
  <g
     inkscape:label="Layer 1"
     inkscape:groupmode="layer"
     id="layer1"
     transform="translate(-102.70224,-59.771528)">
    <path
       id="circle6-8"
       style="display:inline;fill:#ffffff;fill-opacity:1;stroke:#8a1212;stroke-width:0;stroke-dasharray:none;stroke-opacity:1;filter:url(#filter6)"
       d="m 121.37347,62.178634 c 1.14122,1.79967 3.56754,5.687122 6.42596,10.284643 -2.8848,-4.639933 -5.40498,-8.683201 -6.42596,-10.284643 z m 6.42596,10.284643 c -4.05139,0.721939 -8.22413,0.841188 -12.30467,0.324528 -0.66626,-0.08155 -1.32896,-0.183643 -1.98903,-0.298173 -1.27186,2.045708 -2.29053,3.674552 -3.74137,6.017721 -1.84023,2.972007 -3.34232,5.409148 -4.65501,7.548376 2.78299,0.796509 5.62781,1.391227 8.51472,1.744597 7.53083,0.953509 15.28839,0.316706 22.55987,-1.790072 -1.30777,-2.131028 -2.7975,-4.548864 -4.6266,-7.502901 -1.45724,-2.353502 -2.48147,-3.991061 -3.75791,-6.044076 z m -14.2937,0.02635 c 2.86281,-4.604655 5.29339,-8.497577 6.43837,-10.303247 -1.02664,1.610659 -3.55272,5.661875 -6.43837,10.303247 z" />
  </g>
</svg>
